{
	"asset":{
		"generator":"Khronos glTF Blender I/O v4.0.44",
		"version":"2.0"
	},
	"scene":0,
	"scenes":[
		{
			"name":"Scene",
			"nodes":[
				0
			]
		}
	],
	"nodes":[
		{
			"mesh":0,
			"name":"Mesh_0",
			"rotation":[
				0,
				0,
				-0.3826834261417389,
				0.9238795638084412
			],
			"scale":[
				68.7505111694336,
				68.7505111694336,
				68.7505111694336
			]
		}
	],
	"materials":[
		{
			"doubleSided":true,
			"name":"Material_0",
			"pbrMetallicRoughness":{
				"baseColorFactor":[
					0.9999999403953552,
					0.9999999403953552,
					0.9999999403953552,
					1
				],
				"metallicFactor":0,
				"roughnessFactor":0.4000000059604645
			}
		}
	],
	"meshes":[
		{
			"name":"Mesh_0",
			"primitives":[
				{
					"attributes":{
						"POSITION":0,
						"NORMAL":1,
						"TEXCOORD_0":2
					},
					"indices":3,
					"material":0
				}
			]
		}
	],
	"accessors":[
		{
			"bufferView":0,
			"componentType":5126,
			"count":1202,
			"max":[
				0.03813573718070984,
				0.0379965603351593,
				0.009999999776482582
			],
			"min":[
				-0.03813573718070984,
				-0.0379965603351593,
				-0.009999999776482582
			],
			"type":"VEC3"
		},
		{
			"bufferView":1,
			"componentType":5126,
			"count":1202,
			"type":"VEC3"
		},
		{
			"bufferView":2,
			"componentType":5126,
			"count":1202,
			"type":"VEC2"
		},
		{
			"bufferView":3,
			"componentType":5123,
			"count":4200,
			"type":"SCALAR"
		}
	],
	"bufferViews":[
		{
			"buffer":0,
			"byteLength":14424,
			"byteOffset":0,
			"target":34962
		},
		{
			"buffer":0,
			"byteLength":14424,
			"byteOffset":14424,
			"target":34962
		},
		{
			"buffer":0,
			"byteLength":9616,
			"byteOffset":28848,
			"target":34962
		},
		{
			"buffer":0,
			"byteLength":8400,
			"byteOffset":38464,
			"target":34963
		}
	],
	"buffers":[
		{
			"byteLength":46864,
			"uri":"untitled.bin"
		}
	]
}
